<mxfile host="app.diagrams.net" agent="Mozilla/5.0 (Windows NT 10.0; Win64; x64) AppleWebKit/537.36 (KHTML, like Gecko) Chrome/136.0.0.0 Safari/537.36 Edg/136.0.0.0" version="27.0.9">
  <diagram id="C5RBs43oDa-KdzZeNtuy" name="Page-1">
    <mxGraphModel dx="1273" dy="570" grid="1" gridSize="10" guides="1" tooltips="1" connect="1" arrows="1" fold="1" page="1" pageScale="1" pageWidth="827" pageHeight="1169" math="0" shadow="0">
      <root>
        <mxCell id="WIyWlLk6GJQsqaUBKTNV-0" />
        <mxCell id="WIyWlLk6GJQsqaUBKTNV-1" parent="WIyWlLk6GJQsqaUBKTNV-0" />
        <mxCell id="lhYGZLnpY-8CFDNxBRZK-5" style="edgeStyle=orthogonalEdgeStyle;rounded=0;orthogonalLoop=1;jettySize=auto;html=1;entryX=0.5;entryY=0;entryDx=0;entryDy=0;" edge="1" parent="WIyWlLk6GJQsqaUBKTNV-1" source="WIyWlLk6GJQsqaUBKTNV-3" target="lhYGZLnpY-8CFDNxBRZK-4">
          <mxGeometry relative="1" as="geometry">
            <mxPoint x="160" y="190" as="targetPoint" />
            <Array as="points">
              <mxPoint x="150" y="200" />
              <mxPoint x="150" y="200" />
            </Array>
          </mxGeometry>
        </mxCell>
        <mxCell id="WIyWlLk6GJQsqaUBKTNV-3" value="retrieve_standard_context" style="rounded=1;whiteSpace=wrap;html=1;fontSize=12;glass=0;strokeWidth=1;shadow=0;" parent="WIyWlLk6GJQsqaUBKTNV-1" vertex="1">
          <mxGeometry x="50" y="120" width="160" height="60" as="geometry" />
        </mxCell>
        <mxCell id="lhYGZLnpY-8CFDNxBRZK-1" value="" style="edgeStyle=orthogonalEdgeStyle;rounded=0;orthogonalLoop=1;jettySize=auto;html=1;" edge="1" parent="WIyWlLk6GJQsqaUBKTNV-1" source="lhYGZLnpY-8CFDNxBRZK-0" target="WIyWlLk6GJQsqaUBKTNV-3">
          <mxGeometry relative="1" as="geometry">
            <Array as="points">
              <mxPoint x="220" y="70" />
              <mxPoint x="120" y="70" />
            </Array>
          </mxGeometry>
        </mxCell>
        <mxCell id="lhYGZLnpY-8CFDNxBRZK-0" value="Start" style="ellipse;whiteSpace=wrap;html=1;" vertex="1" parent="WIyWlLk6GJQsqaUBKTNV-1">
          <mxGeometry x="160" y="10" width="120" height="30" as="geometry" />
        </mxCell>
        <mxCell id="lhYGZLnpY-8CFDNxBRZK-7" value="" style="edgeStyle=orthogonalEdgeStyle;rounded=0;orthogonalLoop=1;jettySize=auto;html=1;" edge="1" parent="WIyWlLk6GJQsqaUBKTNV-1" source="lhYGZLnpY-8CFDNxBRZK-2" target="lhYGZLnpY-8CFDNxBRZK-6">
          <mxGeometry relative="1" as="geometry" />
        </mxCell>
        <mxCell id="lhYGZLnpY-8CFDNxBRZK-2" value="retrieve_policy_context" style="rounded=1;whiteSpace=wrap;html=1;fontSize=12;glass=0;strokeWidth=1;shadow=0;" vertex="1" parent="WIyWlLk6GJQsqaUBKTNV-1">
          <mxGeometry x="280" y="120" width="170" height="60" as="geometry" />
        </mxCell>
        <mxCell id="lhYGZLnpY-8CFDNxBRZK-3" value="" style="edgeStyle=orthogonalEdgeStyle;rounded=0;orthogonalLoop=1;jettySize=auto;html=1;exitX=0.5;exitY=1;exitDx=0;exitDy=0;entryX=0.432;entryY=-0.01;entryDx=0;entryDy=0;entryPerimeter=0;" edge="1" parent="WIyWlLk6GJQsqaUBKTNV-1" source="lhYGZLnpY-8CFDNxBRZK-0" target="lhYGZLnpY-8CFDNxBRZK-2">
          <mxGeometry relative="1" as="geometry">
            <mxPoint x="410" y="60" as="sourcePoint" />
            <mxPoint x="310" y="80" as="targetPoint" />
            <Array as="points">
              <mxPoint x="220" y="70" />
              <mxPoint x="353" y="70" />
            </Array>
          </mxGeometry>
        </mxCell>
        <mxCell id="lhYGZLnpY-8CFDNxBRZK-9" value="" style="edgeStyle=orthogonalEdgeStyle;rounded=0;orthogonalLoop=1;jettySize=auto;html=1;" edge="1" parent="WIyWlLk6GJQsqaUBKTNV-1" source="lhYGZLnpY-8CFDNxBRZK-4" target="lhYGZLnpY-8CFDNxBRZK-8">
          <mxGeometry relative="1" as="geometry" />
        </mxCell>
        <mxCell id="lhYGZLnpY-8CFDNxBRZK-4" value="analyze_standard" style="rounded=1;whiteSpace=wrap;html=1;fontSize=12;glass=0;strokeWidth=1;shadow=0;" vertex="1" parent="WIyWlLk6GJQsqaUBKTNV-1">
          <mxGeometry x="65" y="250" width="170" height="60" as="geometry" />
        </mxCell>
        <mxCell id="lhYGZLnpY-8CFDNxBRZK-11" value="" style="edgeStyle=orthogonalEdgeStyle;rounded=0;orthogonalLoop=1;jettySize=auto;html=1;exitX=0.5;exitY=1;exitDx=0;exitDy=0;entryX=0.5;entryY=0;entryDx=0;entryDy=0;" edge="1" parent="WIyWlLk6GJQsqaUBKTNV-1" source="lhYGZLnpY-8CFDNxBRZK-6" target="lhYGZLnpY-8CFDNxBRZK-8">
          <mxGeometry relative="1" as="geometry">
            <mxPoint x="240" y="390" as="targetPoint" />
          </mxGeometry>
        </mxCell>
        <mxCell id="lhYGZLnpY-8CFDNxBRZK-6" value="analyze_policy" style="whiteSpace=wrap;html=1;rounded=1;glass=0;strokeWidth=1;shadow=0;" vertex="1" parent="WIyWlLk6GJQsqaUBKTNV-1">
          <mxGeometry x="282.5" y="250" width="165" height="60" as="geometry" />
        </mxCell>
        <mxCell id="lhYGZLnpY-8CFDNxBRZK-13" value="" style="edgeStyle=orthogonalEdgeStyle;rounded=0;orthogonalLoop=1;jettySize=auto;html=1;" edge="1" parent="WIyWlLk6GJQsqaUBKTNV-1" source="lhYGZLnpY-8CFDNxBRZK-8" target="lhYGZLnpY-8CFDNxBRZK-12">
          <mxGeometry relative="1" as="geometry" />
        </mxCell>
        <mxCell id="lhYGZLnpY-8CFDNxBRZK-8" value="merge_analyses" style="whiteSpace=wrap;html=1;rounded=1;glass=0;strokeWidth=1;shadow=0;" vertex="1" parent="WIyWlLk6GJQsqaUBKTNV-1">
          <mxGeometry x="180" y="400" width="120" height="60" as="geometry" />
        </mxCell>
        <mxCell id="lhYGZLnpY-8CFDNxBRZK-15" value="" style="edgeStyle=orthogonalEdgeStyle;rounded=0;orthogonalLoop=1;jettySize=auto;html=1;" edge="1" parent="WIyWlLk6GJQsqaUBKTNV-1" source="lhYGZLnpY-8CFDNxBRZK-12" target="lhYGZLnpY-8CFDNxBRZK-14">
          <mxGeometry relative="1" as="geometry" />
        </mxCell>
        <mxCell id="lhYGZLnpY-8CFDNxBRZK-12" value="verify_specs" style="whiteSpace=wrap;html=1;rounded=1;glass=0;strokeWidth=1;shadow=0;" vertex="1" parent="WIyWlLk6GJQsqaUBKTNV-1">
          <mxGeometry x="180" y="540" width="120" height="60" as="geometry" />
        </mxCell>
        <mxCell id="lhYGZLnpY-8CFDNxBRZK-14" value="reflect" style="whiteSpace=wrap;html=1;rounded=1;glass=0;strokeWidth=1;shadow=0;" vertex="1" parent="WIyWlLk6GJQsqaUBKTNV-1">
          <mxGeometry x="180" y="680" width="120" height="60" as="geometry" />
        </mxCell>
        <mxCell id="lhYGZLnpY-8CFDNxBRZK-16" value="agentic_standard_fallback" style="rounded=1;whiteSpace=wrap;html=1;" vertex="1" parent="WIyWlLk6GJQsqaUBKTNV-1">
          <mxGeometry x="580" y="250" width="210" height="60" as="geometry" />
        </mxCell>
      </root>
    </mxGraphModel>
  </diagram>
</mxfile>
